<svg xmlns="http://www.w3.org/2000/svg" xmlns:xlink="http://www.w3.org/1999/xlink" width="75.027" height="156.191" viewBox="0 0 75.027 156.191">
  <defs>
    <clipPath id="clip-path">
      <rect id="Rectangle_62" data-name="Rectangle 62" width="75.013" height="156.191" fill="none"/>
    </clipPath>
  </defs>
  <g id="beer" transform="translate(0)">
    <g id="Group_56" data-name="Group 56" transform="translate(0 0)">
      <path id="Path_679" data-name="Path 679" d="M472.734,468.975" transform="translate(-413.965 -321.16)" fill="#fff2e3"/>
      <g id="Group_55" data-name="Group 55" transform="translate(0.014 0)">
        <g id="Group_54" data-name="Group 54" clip-path="url(#clip-path)">
          <path id="Path_680" data-name="Path 680" d="M393.942,106.279a8.714,8.714,0,0,0-8.357,8.774V149.22H351.19V114.874a8.6,8.6,0,0,0-17.2,0v50.767h-5.9v11.134a37.342,37.342,0,0,0,74.684,0v-61.9a8.6,8.6,0,0,0-8.84-8.595Zm0,0" transform="translate(-328.112 -105.834)" fill="#fdd1a7"/>
          <path id="Path_681" data-name="Path 681" d="M379.712,244.651H362.934v13.3a5.41,5.41,0,0,0,5.411,5.411h11.368a9.357,9.357,0,0,0,0-18.713Zm0,0" transform="translate(-348.794 -187.984)" fill="#ffbc8a"/>
          <path id="Path_682" data-name="Path 682" d="M450.112,114.875v61.9a37.335,37.335,0,0,1-42.288,37.014,37.347,37.347,0,0,0,32.389-37.014v-61.9a8.585,8.585,0,0,0-3.622-7.011,8.41,8.41,0,0,1,4.684-1.585,8.6,8.6,0,0,1,8.838,8.6Zm0,0" transform="translate(-375.444 -105.835)" fill="#ffbc8a"/>
        </g>
      </g>
      <path id="Path_683" data-name="Path 683" d="M384.93,196.679v28.776a8.6,8.6,0,0,0,17.2,0V196.679a8.6,8.6,0,0,0-17.2,0Zm0,0" transform="translate(-361.838 -154.4)" fill="#ffbc8a"/>
      <path id="Path_684" data-name="Path 684" d="M444.451,201.318v-4.639a8.6,8.6,0,0,0-17.2,0v4.639Zm0,0" transform="translate(-386.964 -154.4)" fill="#ffbc8a"/>
      <path id="Path_685" data-name="Path 685" d="M427.254,260.077v8.12a8.6,8.6,0,0,0,17.2,0v-8.12Zm0,0" transform="translate(-386.964 -197.142)" fill="#ffbc8a"/>
      <path id="Path_686" data-name="Path 686" d="M444.779,260.077V268.2a8.6,8.6,0,0,1-5.06,7.839,8.6,8.6,0,0,0,12.134-7.839v-8.118Zm0,0" transform="translate(-394.365 -197.142)" fill="#f5a871"/>
      <path id="Path_687" data-name="Path 687" d="M444.779,196.672v4.641h7.074v-4.641a8.6,8.6,0,0,0-12.134-7.839,8.6,8.6,0,0,1,5.06,7.839Zm0,0" transform="translate(-394.365 -154.395)" fill="#f5a871"/>
      <path id="Path_688" data-name="Path 688" d="M402.127,196.869a8.725,8.725,0,0,0-8.492-8.793,8.548,8.548,0,0,0-3.642.759,8.605,8.605,0,0,1,5.062,7.839v14.67a9.355,9.355,0,0,0-2.286-.282H384.93V225.45a8.51,8.51,0,0,0,1.171,4.327s3.364-.013,5.686-.035a1.046,1.046,0,0,1,.766,1.773l-.016.016a8.6,8.6,0,0,1-2.542,1.759,8.6,8.6,0,0,0,12.132-7.839Zm0,0" transform="translate(-361.838 -154.397)" fill="#f5a871"/>
      <path id="Path_689" data-name="Path 689" d="M368.388,238.82a9.356,9.356,0,0,1-9.356,9.356H328.1V238.82a9.357,9.357,0,0,1,9.358-9.356h21.575a9.356,9.356,0,0,1,9.356,9.356Zm0,0" transform="translate(-328.098 -178.968)" fill="#fdd1a7"/>
      <path id="Path_690" data-name="Path 690" d="M360.8,186.916a2.353,2.353,0,0,0-3.309.356l-.341.422-.31-.4a2.355,2.355,0,0,0-3.708,2.9l1.637,2.089v2.8a2.354,2.354,0,1,0,4.708,0V192.31l1.679-2.082a2.355,2.355,0,0,0-.356-3.311Zm0,0" transform="translate(-342.66 -153.399)" fill="#f5a871"/>
      <path id="Path_691" data-name="Path 691" d="M482.264,197.446a2.354,2.354,0,0,1-2.225-3.127l2.2-6.344a2.354,2.354,0,0,1,2.223-1.583h.011a2.353,2.353,0,0,1,2.22,1.6l2.136,6.344a16.439,16.439,0,0,0-6.566,3.106Zm0,0" transform="translate(-418.224 -153.398)" fill="#f5a871"/>
      <rect id="Rectangle_63" data-name="Rectangle 63" width="17.197" height="10.982" transform="translate(40.29 45.683)" fill="#f82f40"/>
      <rect id="Rectangle_64" data-name="Rectangle 64" width="7.074" height="10.982" transform="translate(50.414 45.683)" fill="#e22334"/>
      <rect id="Rectangle_65" data-name="Rectangle 65" width="17.197" height="8.157" transform="translate(40.29 56.665)" fill="#27e19d"/>
      <rect id="Rectangle_66" data-name="Rectangle 66" width="7.074" height="8.157" transform="translate(50.414 56.665)" fill="#26d192"/>
      <path id="Path_692" data-name="Path 692" d="M394.636,251.275a2.354,2.354,0,0,1-2.355-2.354v-.032a2.355,2.355,0,1,1,4.709,0v.032a2.354,2.354,0,0,1-2.354,2.354Zm0,0" transform="translate(-366.202 -189.102)" fill="#f82f40"/>
      <path id="Path_693" data-name="Path 693" d="M374.237,251.275h-.011a2.353,2.353,0,0,1-2.342-2.365v-.032a2.355,2.355,0,0,1,2.354-2.344h.011a2.355,2.355,0,0,1,2.344,2.366v.032a2.355,2.355,0,0,1-2.356,2.343Zm0,0" transform="translate(-354.092 -189.102)" fill="#f82f40"/>
      <path id="Path_694" data-name="Path 694" d="M353.838,251.275a2.354,2.354,0,0,1-2.354-2.354v-.032a2.354,2.354,0,1,1,4.708,0v.032a2.354,2.354,0,0,1-2.354,2.354Zm0,0" transform="translate(-341.982 -189.102)" fill="#f82f40"/>
      <path id="Path_695" data-name="Path 695" d="M487.594,274h-.033a2.354,2.354,0,0,1,0-4.709h.033a2.354,2.354,0,0,1,0,4.709Zm0,0" transform="translate(-421.37 -202.613)" fill="#f82f40"/>
      <path id="Path_696" data-name="Path 696" d="M487.594,253.6h-.044a2.355,2.355,0,0,1,.011-4.709h.044a2.355,2.355,0,0,1-.011,4.709Zm0,0" transform="translate(-421.37 -190.503)" fill="#f82f40"/>
      <path id="Path_697" data-name="Path 697" d="M487.594,233.2h-.033a2.354,2.354,0,1,1,0-4.708h.033a2.354,2.354,0,0,1,0,4.708Zm0,0" transform="translate(-421.37 -178.393)" fill="#f82f40"/>
    </g>
  </g>
</svg>
