<svg xmlns="http://www.w3.org/2000/svg" width="107.035" height="107.035" viewBox="0 0 107.035 107.035">
  <g id="beer" transform="translate(0 0)">
    <g id="Group_57" data-name="Group 57">
      <path id="Path_698" data-name="Path 698" d="M250.145,243.528a38.661,38.661,0,0,0,.3,4.891,51.652,51.652,0,0,1-5.832-12.272C237.227,214,228,204.774,228,204.774c.2-.11.424-.2.627-.314h.018a80.643,80.643,0,0,0,10.243,2.068,82.294,82.294,0,0,1,14.007,21.9c-1.716,3.285-2.749,8.083-2.749,15.1Zm0,0" transform="translate(-228 -177.092)" fill="#ff5364"/>
      <path id="Path_699" data-name="Path 699" d="M336.06,133.644a81.141,81.141,0,0,1-10.224,2.068,67.6,67.6,0,0,1-9.43.608,44.5,44.5,0,0,1-7.381-.683c-5-.812-9.3-2.049-12.919-1.587a10.035,10.035,0,0,0-1.846.424c-5.536,1.846-7.381,3.691-11.072,3.691s-5.537-1.846-11.072-3.691a10.035,10.035,0,0,0-1.846-.424c-3.617-.462-7.917.775-12.919,1.587a44.5,44.5,0,0,1-7.381.683,67.352,67.352,0,0,1-9.412-.608,80.64,80.64,0,0,1-10.243-2.068c7.069-3.488,12.494-5.5,19.654-14.45,8.156-10.187,12.918-12.918,20.3-12.918s9.227,7.382,12.918,7.382,5.537-7.382,12.918-7.382,12.144,2.731,20.3,12.918c7.16,8.951,12.586,10.962,19.654,14.45Zm0,0" transform="translate(-229.67 -106.276)" fill="#fb7b76"/>
      <path id="Path_700" data-name="Path 700" d="M547.583,204.774s-9.227,9.228-16.609,31.373a51.654,51.654,0,0,1-5.832,12.272,38.678,38.678,0,0,0,.3-4.891c0-7.012-1.033-11.81-2.749-15.1a81.152,81.152,0,0,1,14.025-21.9,81.144,81.144,0,0,0,10.224-2.068h.018c.2.111.424.2.627.314Zm0,0" transform="translate(-440.547 -177.092)" fill="#ff5364"/>
      <path id="Path_701" data-name="Path 701" d="M370.193,287.319a38.661,38.661,0,0,1-.3,4.891v.018c-2.565,21.315-21.352,35.69-31.077,35.69s-28.512-14.376-31.077-35.69v-.018a38.661,38.661,0,0,1-.3-4.891c0-7.012,1.033-11.81,2.749-15.1,3.267-6.257,8.969-7.049,14.672-7.049,10.464,0,13.951,5.536,13.951,5.536s3.488-5.536,13.951-5.536c5.7,0,11.405.793,14.672,7.049,1.716,3.285,2.749,8.083,2.749,15.1Zm0,0" transform="translate(-285.303 -220.883)" fill="#fb7b76"/>
      <path id="Path_702" data-name="Path 702" d="M352.34,207.34a81.153,81.153,0,0,0-14.025,21.9c-3.267-6.257-8.969-7.049-14.672-7.049-10.464,0-13.951,5.536-13.951,5.536S306.2,222.2,295.741,222.2c-5.7,0-11.405.793-14.672,7.049a82.3,82.3,0,0,0-14.007-21.9,67.362,67.362,0,0,0,9.412.609c9.227,0,16.609-3.691,22.145-1.846s7.381,3.691,11.072,3.691,5.536-1.846,11.072-3.691,12.919,1.846,22.146,1.846a67.615,67.615,0,0,0,9.43-.609Zm0,0" transform="translate(-256.174 -177.905)" fill="#802d40"/>
      <path id="Path_703" data-name="Path 703" d="M386.574,210.033v3.174a3.7,3.7,0,0,1-3.691,3.691h-5.536a3.7,3.7,0,0,1-3.691-3.691v-7.29a10.035,10.035,0,0,1,1.845.425c5.536,1.846,7.381,3.691,11.072,3.691Zm0,0" transform="translate(-333.056 -178.143)" fill="#d1d4d1"/>
      <path id="Path_704" data-name="Path 704" d="M340.228,205.657V211.1a3.7,3.7,0,0,1-3.691,3.691H331a3.7,3.7,0,0,1-3.691-3.691v-3.857c5-.812,9.3-2.049,12.919-1.587Zm0,0" transform="translate(-299.628 -177.884)" fill="#ecf0f1"/>
      <path id="Path_705" data-name="Path 705" d="M432.918,205.917v7.29a3.7,3.7,0,0,1-3.691,3.691h-5.536A3.7,3.7,0,0,1,420,213.207v-3.174c3.691,0,5.537-1.846,11.072-3.691a10.034,10.034,0,0,1,1.846-.425Zm0,0" transform="translate(-366.482 -178.143)" fill="#ecf0f1"/>
      <path id="Path_706" data-name="Path 706" d="M479.263,207.245V211.1a3.7,3.7,0,0,1-3.691,3.691h-5.536a3.7,3.7,0,0,1-3.691-3.691v-5.444c3.617-.462,7.917.775,12.919,1.587Zm0,0" transform="translate(-399.908 -177.884)" fill="#d1d4d1"/>
      <path id="Path_707" data-name="Path 707" d="M415.225,291.332a1.846,1.846,0,0,1-1.846-1.845v-9.228a1.846,1.846,0,0,1,3.691,0v9.228a1.846,1.846,0,0,1-1.846,1.845Zm0,0" transform="translate(-361.707 -230.432)" fill="#ff5364"/>
      <rect id="Rectangle_67" data-name="Rectangle 67" width="7.381" height="3.69" transform="translate(40.6 77.509)" fill="#7f8c8d"/>
      <rect id="Rectangle_68" data-name="Rectangle 68" width="7.381" height="3.69" transform="translate(59.054 77.509)" fill="#7f8c8d"/>
      <path id="Path_708" data-name="Path 708" d="M395.362,382.176a1.846,1.846,0,0,1-1.846-1.846v-7.381a1.846,1.846,0,0,1,3.691,0v7.381a1.846,1.846,0,0,1-1.846,1.846Zm0,0" transform="translate(-347.38 -297.286)" fill="#ff5364"/>
      <path id="Path_709" data-name="Path 709" d="M435.088,382.176a1.846,1.846,0,0,1-1.845-1.846v-7.381a1.846,1.846,0,0,1,3.691,0v7.381a1.846,1.846,0,0,1-1.846,1.846Zm0,0" transform="translate(-376.033 -297.286)" fill="#ff5364"/>
      <path id="Path_710" data-name="Path 710" d="M351.624,376.641a5.537,5.537,0,1,1-5.537-5.537,5.536,5.536,0,0,1,5.537,5.537Zm0,0" transform="translate(-309.179 -297.286)" fill="#f0c419"/>
      <path id="Path_711" data-name="Path 711" d="M470.8,376.641a5.537,5.537,0,1,1-5.537-5.537,5.536,5.536,0,0,1,5.537,5.537Zm0,0" transform="translate(-395.133 -297.286)" fill="#f0c419"/>
    </g>
  </g>
</svg>
