<svg id="beer" xmlns="http://www.w3.org/2000/svg" xmlns:xlink="http://www.w3.org/1999/xlink" width="132.904" height="125.009" viewBox="0 0 132.904 125.009">
  <defs>
    <clipPath id="clip-path">
      <rect id="Rectangle_69" data-name="Rectangle 69" width="132.904" height="125.009" fill="none"/>
    </clipPath>
  </defs>
  <g id="Group_62" data-name="Group 62" transform="translate(0 0)">
    <g id="Group_59" data-name="Group 59" transform="translate(0 0)">
      <g id="Group_58" data-name="Group 58" clip-path="url(#clip-path)">
        <path id="Path_712" data-name="Path 712" d="M287.116,276.95c3.448-3.448,11.2-4.972,15.22-8.989q.162-.162.312-.324a2.926,2.926,0,0,0-3.484-4.576c-9.353,4.654-13.616-6.488-13.616-6.488l-7.524-7.524,10.44-10.44c-8.758-8.758-4.622-15.276-.287-18.932a2.934,2.934,0,0,0-2.1-5.153c-2.942.207-6.519,1.5-10.256,5.234-9.311,9.311-6.1,22.662-19.9,25.435-12.477,2.508-17.69,6.423-21.908,10.844-9.42,9.872-7.653,27.287,4.457,39.4s29.749,14.107,39.4,4.459c8.971-8.97,5.673-19.368,9.247-22.943Zm0,0" transform="translate(-228.336 -181.45)" fill="#fb4a59"/>
        <path id="Path_713" data-name="Path 713" d="M347.353,315.8l-7.609,7.322a1.464,1.464,0,0,0-.022,2.089l7.131,7.131a1.464,1.464,0,0,0,2.089-.02l7.322-7.611Zm0,0" transform="translate(-300.673 -247.28)" fill="#f82f40"/>
        <path id="Path_714" data-name="Path 714" d="M291.665,389.424c-9.647,9.647-27.287,7.649-39.4-4.462a38.842,38.842,0,0,1-3.041-3.417c11.823,9.327,27.2,10.184,35.972,1.412,8.971-8.971,5.673-19.371,9.246-22.944,2.668-2.668,7.909-4.184,12-6.591a8.746,8.746,0,0,0,6.511-.834,2.926,2.926,0,0,1,3.483,4.579c-.1.108-.2.215-.311.323-4.016,4.016-11.771,5.539-15.221,8.989-3.573,3.573-.275,13.973-9.246,22.944Zm0,0" transform="translate(-242.133 -270.98)" fill="#f82f40"/>
      </g>
    </g>
    <path id="Path_715" data-name="Path 715" d="M360.636,228.23,417.721,168.9l-6.956-6.954-59.327,57.084a1.463,1.463,0,0,0-.02,2.089l7.128,7.129a1.463,1.463,0,0,0,2.089-.021Zm0,0" transform="translate(-308.275 -147.283)" fill="#3f5959"/>
    <path id="Path_716" data-name="Path 716" d="M423.213,168.9l-6.957-6.954-4.821,4.639.559.559a2.853,2.853,0,0,1,.038,4l-50.5,52.49a1.465,1.465,0,0,1-2.09.02l4.6,4.6a1.466,1.466,0,0,0,2.091-.021Zm0,0" transform="translate(-313.766 -147.283)" fill="#384848"/>
    <path id="Path_717" data-name="Path 717" d="M280.421,401.727l-8.8-8.795a2.929,2.929,0,0,1,0-4.139l1.63-1.629a2.927,2.927,0,0,1,4.139,0l8.795,8.795a2.926,2.926,0,0,1,0,4.139l-1.63,1.628a2.925,2.925,0,0,1-4.138,0Zm0,0" transform="translate(-256.134 -293.108)" fill="#eff5f6"/>
    <path id="Path_718" data-name="Path 718" d="M296.178,410.091l-1.628,1.628a2.927,2.927,0,0,1-4.139,0l-4.27-4.272a2.926,2.926,0,0,0,4.139,0l1.628-1.628a2.926,2.926,0,0,0,0-4.138l4.27,4.27a2.924,2.924,0,0,1,0,4.139Zm0,0" transform="translate(-266.125 -303.101)" fill="#cbe5e7"/>
    <path id="Path_719" data-name="Path 719" d="M315.6,366.551l-8.795-8.795a2.927,2.927,0,0,1,0-4.137l1.63-1.63a2.924,2.924,0,0,1,4.138,0l8.8,8.795a2.929,2.929,0,0,1,0,4.139l-1.63,1.628a2.926,2.926,0,0,1-4.139,0Zm0,0" transform="translate(-278.997 -270.245)" fill="#eff5f6"/>
    <path id="Path_720" data-name="Path 720" d="M331.354,374.912l-1.628,1.628a2.922,2.922,0,0,1-4.138,0l-4.272-4.27a2.926,2.926,0,0,0,4.139,0l1.628-1.628a2.929,2.929,0,0,0,0-4.139l4.27,4.272a2.923,2.923,0,0,1,0,4.137Zm0,0" transform="translate(-288.988 -280.236)" fill="#cbe5e7"/>
    <path id="Path_721" data-name="Path 721" d="M354.056,414.21a2.028,2.028,0,0,1-1.494-3.4l.059-.064a2.028,2.028,0,0,1,2.992,2.739l-.059.064a2.023,2.023,0,0,1-1.5.659Zm0,0" transform="translate(-308.95 -308.565)" fill="#eff5f6"/>
    <path id="Path_722" data-name="Path 722" d="M327.976,440.189a2.028,2.028,0,0,1-1.5-3.4l.059-.064a2.028,2.028,0,1,1,2.992,2.739l-.059.064a2.025,2.025,0,0,1-1.5.659Zm0,0" transform="translate(-291.999 -325.45)" fill="#eff5f6"/>
    <g id="Group_61" data-name="Group 61" transform="translate(0 0)">
      <g id="Group_60" data-name="Group 60" clip-path="url(#clip-path)">
        <path id="Path_723" data-name="Path 723" d="M346.566,432.748a2.02,2.02,0,0,1-1.362-.526l-.06-.055a2.028,2.028,0,1,1,2.727-3l.06.054a2.028,2.028,0,0,1-1.365,3.529Zm0,0" transform="translate(-304.043 -320.621)" fill="#eff5f6"/>
        <path id="Path_724" data-name="Path 724" d="M519.222,134.189l3.074-6.435a1.468,1.468,0,0,1,.919-.777l21.872-6.246a1.464,1.464,0,0,1,1.436.373l4.653,4.653a1.462,1.462,0,0,1-.331,2.318l-5.543,3.038a9.318,9.318,0,0,0-2.889,2.465l-5.789,7.471a1.456,1.456,0,0,1-1.848.4c-1.311-.729-3.811-1.441-6.845,1.006a1.454,1.454,0,0,1-1.938-.115l-6.485-6.484a1.464,1.464,0,0,1-.285-1.665Zm0,0" transform="translate(-417.526 -120.458)" fill="#fb4a59"/>
        <path id="Path_725" data-name="Path 725" d="M549.576,131.247a9.285,9.285,0,0,0-2.888,2.463l-5.789,7.474a1.459,1.459,0,0,1-1.849.4c-1.31-.727-3.805-1.438-6.833,1a1.462,1.462,0,0,1-1.95-.107l-4.612-4.612c3.46-3.46,6.355-2.673,7.8-1.873a1.452,1.452,0,0,0,1.847-.4l5.792-7.471a9.309,9.309,0,0,1,2.886-2.464l5.543-3.04a1.46,1.46,0,0,0,.689-1.736,1.46,1.46,0,0,1,.581.358l4.653,4.653a1.464,1.464,0,0,1-.331,2.318Zm0,0" transform="translate(-421.801 -120.589)" fill="#f82f40"/>
      </g>
    </g>
    <path id="Path_726" data-name="Path 726" d="M504.141,188.182a2.027,2.027,0,0,1-1.434-.594L496,180.882a2.028,2.028,0,1,1,2.869-2.869l6.705,6.707a2.028,2.028,0,0,1-1.435,3.462Zm0,0" transform="translate(-402.14 -157.339)" fill="#fcc16d"/>
    <path id="Path_727" data-name="Path 727" d="M485.828,206.5a2.023,2.023,0,0,1-1.435-.595l-6.705-6.707a2.029,2.029,0,0,1,2.869-2.869l6.706,6.707a2.029,2.029,0,0,1-1.435,3.464Zm0,0" transform="translate(-390.237 -169.242)" fill="#fcc16d"/>
    <path id="Path_728" data-name="Path 728" d="M467.516,224.807a2.022,2.022,0,0,1-1.434-.594l-6.706-6.707a2.028,2.028,0,0,1,2.869-2.869l6.705,6.707a2.028,2.028,0,0,1-1.434,3.462Zm0,0" transform="translate(-378.335 -181.144)" fill="#fcc16d"/>
    <path id="Path_729" data-name="Path 729" d="M449.2,243.121a2.023,2.023,0,0,1-1.434-.595l-6.705-6.705a2.029,2.029,0,1,1,2.869-2.87l6.706,6.707a2.029,2.029,0,0,1-1.435,3.463Zm0,0" transform="translate(-366.432 -193.047)" fill="#fcc16d"/>
    <path id="Path_730" data-name="Path 730" d="M430.693,261.237a2.018,2.018,0,0,1-1.433-.595l-7.154-7.153a2.028,2.028,0,0,1,2.869-2.869l7.154,7.153a2.029,2.029,0,0,1-1.436,3.463Zm0,0" transform="translate(-354.111 -204.531)" fill="#fcc16d"/>
    <path id="Path_731" data-name="Path 731" d="M412.047,279.214a2.02,2.02,0,0,1-1.434-.595l-7.947-7.948a2.028,2.028,0,1,1,2.869-2.869l7.947,7.948a2.029,2.029,0,0,1-1.434,3.463Zm0,0" transform="translate(-341.475 -215.698)" fill="#fcc16d"/>
    <path id="Path_732" data-name="Path 732" d="M393.734,297.525a2.027,2.027,0,0,1-1.434-.593l-7.947-7.948a2.029,2.029,0,0,1,2.869-2.869l7.947,7.948a2.028,2.028,0,0,1-1.434,3.462Zm0,0" transform="translate(-329.572 -227.601)" fill="#fcc16d"/>
    <path id="Path_733" data-name="Path 733" d="M375.421,315.839a2.022,2.022,0,0,1-1.434-.595L366.04,307.3a2.029,2.029,0,0,1,2.869-2.87l7.947,7.948a2.029,2.029,0,0,1-1.435,3.463Zm0,0" transform="translate(-317.67 -239.503)" fill="#fcc16d"/>
    <path id="Path_734" data-name="Path 734" d="M385.171,320.59a2.028,2.028,0,0,1-2.867,2.87l-4.065-4.065,2.813-2.924Zm0,0" transform="translate(-325.985 -247.717)" fill="#fcb44d"/>
    <path id="Path_735" data-name="Path 735" d="M403.256,302.047a2.027,2.027,0,1,1-2.866,2.866l-4.187-4.186,2.813-2.925Zm0,0" transform="translate(-337.661 -235.584)" fill="#fcb44d"/>
    <path id="Path_736" data-name="Path 736" d="M421.337,283.512a2.027,2.027,0,1,1-2.866,2.867l-4.311-4.308,2.813-2.923Zm0,0" transform="translate(-349.333 -223.458)" fill="#fcb44d"/>
    <path id="Path_737" data-name="Path 737" d="M439.021,264.569a2.028,2.028,0,0,1-2.869,2.869l-4.035-4.035,2.815-2.924Zm0,0" transform="translate(-361.004 -211.325)" fill="#fcb44d"/>
    <path id="Path_738" data-name="Path 738" d="M456.884,245.8a2.027,2.027,0,1,1-2.868,2.866l-3.938-3.935,2.812-2.923Zm0,0" transform="translate(-372.678 -199.191)" fill="#fcb44d"/>
    <path id="Path_739" data-name="Path 739" d="M474.969,227.263a2.027,2.027,0,1,1-2.866,2.867l-4.06-4.059,2.813-2.924Zm0,0" transform="translate(-384.355 -187.06)" fill="#fcb44d"/>
    <path id="Path_740" data-name="Path 740" d="M493.053,208.717a2.03,2.03,0,0,1-1.436,3.465,2.007,2.007,0,0,1-1.433-.595L486,207.4l2.813-2.924Zm0,0" transform="translate(-396.026 -174.927)" fill="#fcb44d"/>
    <path id="Path_741" data-name="Path 741" d="M511.137,192.718a2.028,2.028,0,0,1-2.87,0l-4.306-4.305,2-2.085a2.79,2.79,0,0,0,.63-1.016l4.541,4.537a2.031,2.031,0,0,1,0,2.87Zm0,0" transform="translate(-407.7 -162.468)" fill="#fcb44d"/>
    <path id="Path_742" data-name="Path 742" d="M511.137,192.718a2.028,2.028,0,0,1-2.87,0l-4.306-4.305,2-2.085a2.79,2.79,0,0,0,.63-1.016l4.541,4.537a2.031,2.031,0,0,1,0,2.87Zm0,0" transform="translate(-407.7 -162.468)" fill="#fcb44d"/>
    <path id="Path_743" data-name="Path 743" d="M493.053,211.587a2.027,2.027,0,0,1-2.869,0L486,207.4l2.813-2.924,4.24,4.238a2.033,2.033,0,0,1,0,2.87Zm0,0" transform="translate(-396.026 -174.927)" fill="#fcb44d"/>
    <path id="Path_744" data-name="Path 744" d="M474.969,230.13a2.023,2.023,0,0,1-2.866,0l-4.06-4.059,2.813-2.924,4.113,4.116a2.025,2.025,0,0,1,0,2.867Zm0,0" transform="translate(-384.355 -187.06)" fill="#fcb44d"/>
    <path id="Path_745" data-name="Path 745" d="M456.884,248.67a2.026,2.026,0,0,1-2.868,0l-3.938-3.935,2.812-2.923,3.993,3.993a2.027,2.027,0,0,1,0,2.866Zm0,0" transform="translate(-372.678 -199.191)" fill="#fcb44d"/>
    <path id="Path_746" data-name="Path 746" d="M439.021,267.438a2.033,2.033,0,0,1-2.869,0l-4.035-4.035,2.815-2.924,4.089,4.09a2.027,2.027,0,0,1,0,2.869Zm0,0" transform="translate(-361.004 -211.325)" fill="#fcb44d"/>
    <path id="Path_747" data-name="Path 747" d="M421.337,286.379a2.023,2.023,0,0,1-2.866,0l-4.311-4.308,2.813-2.923,4.365,4.365a2.025,2.025,0,0,1,0,2.867Zm0,0" transform="translate(-349.333 -223.458)" fill="#fcb44d"/>
    <path id="Path_748" data-name="Path 748" d="M403.256,304.913a2.024,2.024,0,0,1-2.866,0l-4.187-4.186,2.813-2.925,4.24,4.244a2.024,2.024,0,0,1,0,2.866Zm0,0" transform="translate(-337.661 -235.584)" fill="#fcb44d"/>
    <path id="Path_749" data-name="Path 749" d="M385.171,323.46a2.031,2.031,0,0,1-2.867,0l-4.065-4.065,2.813-2.924,4.12,4.12a2.029,2.029,0,0,1,0,2.869Zm0,0" transform="translate(-325.985 -247.717)" fill="#fcb44d"/>
  </g>
</svg>
