<svg xmlns="http://www.w3.org/2000/svg" xmlns:xlink="http://www.w3.org/1999/xlink" width="99.763" height="116.439" viewBox="0 0 99.763 116.439">
  <defs>
    <clipPath id="clip-path">
      <rect id="Rectangle_72" data-name="Rectangle 72" width="99.482" height="116.439" fill="none"/>
    </clipPath>
  </defs>
  <g id="Group_65" data-name="Group 65" transform="translate(0)">
    <path id="Path_750" data-name="Path 750" d="M275.552,185.224v-6.649a37.578,37.578,0,1,1,75.157,0v6.649h8.782v-6.649a46.361,46.361,0,1,0-92.722,0v6.649Zm0,0" transform="translate(-263.249 -124.109)" fill="#688d97"/>
    <path id="Path_751" data-name="Path 751" d="M458.333,178.576v6.651h-6.967v-6.651a46.42,46.42,0,0,0-42.878-46.227q1.727-.131,3.483-.131a46.414,46.414,0,0,1,46.362,46.359Zm0,0" transform="translate(-362.089 -124.111)" fill="#557983"/>
    <path id="Path_752" data-name="Path 752" d="M255.133,331.987v12.822a7.528,7.528,0,0,0,7.527,7.529h15.787V331.987Zm0,0" transform="translate(-255.133 -263.439)" fill="#fb5f62"/>
    <rect id="Rectangle_71" data-name="Rectangle 71" width="23.315" height="7.496" transform="translate(0 68.548)" fill="#fb4a59"/>
    <path id="Path_753" data-name="Path 753" d="M278.447,303.519V289.264H262.66a7.527,7.527,0,0,0-7.527,7.527v6.727Zm0,0" transform="translate(-255.133 -233.642)" fill="#31a7fb"/>
    <path id="Path_754" data-name="Path 754" d="M277.242,337.53a1.754,1.754,0,0,1-1.754-1.754v-3.438a1.753,1.753,0,0,1,3.507,0v3.438a1.753,1.753,0,0,1-1.753,1.754Zm0,0" transform="translate(-269.329 -262.461)" fill="#384848"/>
    <path id="Path_755" data-name="Path 755" d="M507.809,331.987v20.351H523.6a7.528,7.528,0,0,0,7.527-7.529V331.987Zm0,0" transform="translate(-431.36 -263.439)" fill="#fb5f62"/>
    <path id="Path_756" data-name="Path 756" d="M507.809,331.987v7.5h10.076a5.326,5.326,0,0,1,5.326,5.326,7.528,7.528,0,0,1-7.527,7.527H523.6a7.528,7.528,0,0,0,7.527-7.527V331.987Zm0,0" transform="translate(-431.36 -263.439)" fill="#fb4a59"/>
    <path id="Path_757" data-name="Path 757" d="M531.125,296.79v6.727H507.812V289.26H523.6a7.528,7.528,0,0,1,7.527,7.53Zm0,0" transform="translate(-431.362 -233.64)" fill="#31a7fb"/>
    <path id="Path_758" data-name="Path 758" d="M549.276,296.79v6.727h-7.913V296.79a7.529,7.529,0,0,0-7.527-7.53h7.912a7.529,7.529,0,0,1,7.527,7.53Zm0,0" transform="translate(-449.512 -233.64)" fill="#1c96f9"/>
    <path id="Path_759" data-name="Path 759" d="M554.675,337.53a1.753,1.753,0,0,1-1.753-1.754v-3.438a1.753,1.753,0,0,1,3.507,0v3.438a1.754,1.754,0,0,1-1.754,1.754Zm0,0" transform="translate(-462.824 -262.461)" fill="#384848"/>
    <path id="Path_760" data-name="Path 760" d="M362.9,297.025a2.234,2.234,0,0,0,2.163-2.8l-5.108-19.621h.066a8.262,8.262,0,1,0,7.124-14.07,32.136,32.136,0,1,0-56.63,0,8.262,8.262,0,1,0,7.124,14.069l-5.108,19.621a2.235,2.235,0,0,0,2.163,2.8Zm0,0" transform="translate(-288.945 -180.586)" fill="#fff2e3"/>
    <path id="Path_761" data-name="Path 761" d="M406.24,260.538a32.111,32.111,0,0,0-13.508-43.7.044.044,0,0,0,0-.013,32.074,32.074,0,0,0-32.5,1.67c-.143,1.568-.316,2.766-.466,3.619a6.333,6.333,0,0,0,9.685,6.4,77.168,77.168,0,0,0,6.375-4.575c.3,3.786.624,8.128.9,12.107a5.672,5.672,0,0,0,10.929,1.706c.625-1.572,1.308-3.446,1.971-5.571a3.879,3.879,0,0,1,7.222-.483,32.065,32.065,0,0,1,.329,26.584,2.248,2.248,0,0,0,1.1,2.942,8.251,8.251,0,0,1,1.515,13.966,8.261,8.261,0,1,0,6.449-14.658Zm0,0" transform="translate(-328.043 -180.586)" fill="#ffe5c4"/>
    <path id="Path_762" data-name="Path 762" d="M365.915,313.764a7.928,7.928,0,1,1-7.928-7.929,7.928,7.928,0,0,1,7.928,7.929Zm0,0" transform="translate(-321.338 -245.2)" fill="#d68a5a"/>
    <path id="Path_763" data-name="Path 763" d="M364.879,320.654a7.927,7.927,0,0,1-12.977-2.683,7.929,7.929,0,0,0,10.292-10.293,7.929,7.929,0,0,1,2.685,12.976Zm0,0" transform="translate(-322.624 -246.485)" fill="#c47a4a"/>
    <path id="Path_764" data-name="Path 764" d="M453.391,313.764a7.928,7.928,0,1,1-7.928-7.929,7.928,7.928,0,0,1,7.928,7.929Zm0,0" transform="translate(-382.348 -245.2)" fill="#d68a5a"/>
    <path id="Path_765" data-name="Path 765" d="M452.356,320.654a7.927,7.927,0,0,1-11.214,0,7.844,7.844,0,0,1-1.763-2.683,7.929,7.929,0,0,0,10.292-10.293,7.929,7.929,0,0,1,2.685,12.976Zm0,0" transform="translate(-383.634 -246.485)" fill="#c47a4a"/>
    <path id="Path_766" data-name="Path 766" d="M402.414,371.582a1.754,1.754,0,0,1-1.508-2.646,6.448,6.448,0,0,1,11.113,0A1.753,1.753,0,1,1,409,370.722a2.941,2.941,0,0,0-5.076,0,1.752,1.752,0,0,1-1.51.86Zm0,0" transform="translate(-356.631 -286.994)" fill="#d68a5a"/>
    <g id="Group_64" data-name="Group 64" transform="translate(0.281 0)">
      <g id="Group_63" data-name="Group 63" clip-path="url(#clip-path)">
        <path id="Path_767" data-name="Path 767" d="M382.114,437.09a1.789,1.789,0,0,1,.021.273H378.61l-1.676-10.627h-6.317l.545,10.536c0,.032,0,.06,0,.091h-3.509l-.549-10.627h-6.124l-.55,10.627h-3.509c0-.031,0-.06,0-.091l.545-10.536h-6.316l-1.673,10.627h-3.528a1.788,1.788,0,0,1,.021-.273l1.631-10.354h-7.789l.911-3.507h7.429l1.157-7.341a1.754,1.754,0,0,1,3.465.547l-1.071,6.793h5.945l.369-7.157a1.753,1.753,0,0,1,3.5.182l-.36,6.975h5.76l-.359-6.975a1.753,1.753,0,0,1,3.5-.182l.369,7.157h5.947l-1.071-6.793a1.753,1.753,0,1,1,3.463-.547l1.157,7.341h7.429l.911,3.507h-7.79Zm0,0" transform="translate(-314.476 -320.924)" fill="#d68a5a"/>
        <path id="Path_768" data-name="Path 768" d="M389.456,161.464c2.742-6.894,7.54-22.373,3.39-38.511a1.662,1.662,0,0,0-2.8-.735l-9.924,10.145s-4.169-14.6-9.757-25.541a1,1,0,0,0-1.871.626c1.623,9.4,4.252,28.169,2.021,40.908a1.661,1.661,0,0,0,2.54,1.671c3.732-2.412,9.617-6.652,12.759-11.172,0,0,1.02,12.241,1.717,22.308a1,1,0,0,0,1.922.3Zm0,0" transform="translate(-334.467 -106.02)" fill="#bf3ff6"/>
      </g>
    </g>
    <path id="Path_769" data-name="Path 769" d="M288.064,376.887h-6.779v-6.311a3.39,3.39,0,1,1,6.779,0Zm0,0" transform="translate(-273.373 -287.989)" fill="#fcb5ba"/>
    <path id="Path_770" data-name="Path 770" d="M543.166,376.887h-6.779v-6.311a3.39,3.39,0,1,1,6.779,0Zm0,0" transform="translate(-451.292 -287.989)" fill="#fcb5ba"/>
  </g>
</svg>
