<svg xmlns="http://www.w3.org/2000/svg" width="33.696" height="76.779" viewBox="0 0 33.696 76.779">
  <g id="liquor" transform="translate(-18.121)">
    <g id="Group_90" data-name="Group 90" transform="translate(19.818 33.884)">
      <path id="Path_797" data-name="Path 797" d="M19.549,28.5h30.3V64.357h-30.3Z" transform="translate(-19.549 -28.504)" fill="#3f5959"/>
      <path id="Path_798" data-name="Path 798" d="M19.549,28.5v4.263H41.806a3.746,3.746,0,0,1,3.746,3.746V64.357h4.3V28.5Z" transform="translate(-19.549 -28.504)" fill="#384848"/>
    </g>
    <path id="Path_799" data-name="Path 799" d="M50.316,31h-30.7a1.5,1.5,0,0,1-1.5-1.5V25.33a1.5,1.5,0,0,1,1.5-1.5h30.7a1.5,1.5,0,0,1,1.5,1.5V29.5A1.5,1.5,0,0,1,50.316,31Z" transform="translate(0 4.498)" fill="#fca62f"/>
    <path id="Path_800" data-name="Path 800" d="M47.581,25.33V29.5a1.5,1.5,0,0,1-1.5,1.5H40.56a1.5,1.5,0,0,0,1.5-1.5V25.33a1.5,1.5,0,0,0-1.5-1.5h5.521A1.5,1.5,0,0,1,47.581,25.33Z" transform="translate(4.236 4.498)" fill="#fb9927"/>
    <path id="Path_801" data-name="Path 801" d="M49.5,66.155H20.438a2.317,2.317,0,0,1-2.317-2.317V57.779a1.5,1.5,0,0,1,1.5-1.5h30.7a1.5,1.5,0,0,1,1.5,1.5v6.059A2.317,2.317,0,0,1,49.5,66.155Z" transform="translate(0 10.624)" fill="#fca62f"/>
    <path id="Path_802" data-name="Path 802" d="M47.711,57.779v6.059a2.318,2.318,0,0,1-2.317,2.317h-5.52a2.318,2.318,0,0,0,2.317-2.317V57.779a1.5,1.5,0,0,0-1.5-1.5h5.521a1.5,1.5,0,0,1,1.5,1.5Z" transform="translate(4.106 10.624)" fill="#fb9927"/>
    <path id="Path_803" data-name="Path 803" d="M26.959,14.578a22.909,22.909,0,0,0-.449,4.254q0,.507.033.992a1.5,1.5,0,0,0,1.5,1.411H38.729a1.5,1.5,0,0,0,1.5-1.41q.032-.485.033-.992a22.924,22.924,0,0,0-.45-4.254H26.959Z" transform="translate(1.584 2.752)" fill="#fcb44d"/>
    <path id="Path_804" data-name="Path 804" d="M31.648,5.861a4.091,4.091,0,0,0-1.184.792,8.119,8.119,0,0,1,1.184,1.418Z" transform="translate(2.33 1.106)" fill="#fca62f"/>
    <path id="Path_805" data-name="Path 805" d="M34.211,14.578a22.9,22.9,0,0,1,.45,4.253q0,.507-.032.992a1.505,1.505,0,0,1-1.5,1.411h4.349a1.5,1.5,0,0,0,1.5-1.411c.022-.323.034-.654.034-.992a22.912,22.912,0,0,0-.45-4.253Z" transform="translate(2.833 2.752)" fill="#fca62f"/>
    <path id="Path_806" data-name="Path 806" d="M39.979,17.462c-.8-5.4-3.464-11.776-6.632-11.776s-5.835,6.373-6.632,11.776Z" transform="translate(1.622 1.073)" fill="#3f5959"/>
    <path id="Path_807" data-name="Path 807" d="M38.595,12.512h0C37.338,8.8,35.37,5.687,33.157,5.687S28.976,8.8,27.719,12.512h4.794A2.268,2.268,0,0,1,34.708,14.2c.279,1.066.605,2.4.733,3.258h4.349a28.938,28.938,0,0,0-1.194-4.95Z" transform="translate(1.812 1.073)" fill="#384848"/>
    <path id="Path_808" data-name="Path 808" d="M49.107,25.453H20.088l9-5.7H40.1Z" transform="translate(0.371 3.728)" fill="#fb9927"/>
    <path id="Path_809" data-name="Path 809" d="M46.9,25.454H40.8l-9-5.7h6.094Z" transform="translate(2.582 3.728)" fill="#f98824"/>
    <path id="Path_810" data-name="Path 810" d="M36.653,10.564H29.54a1.5,1.5,0,0,1-1.5-1.5V1.5A1.5,1.5,0,0,1,29.54,0h7.113a1.5,1.5,0,0,1,1.5,1.5V9.063a1.5,1.5,0,0,1-1.5,1.5Z" transform="translate(1.872 0)" fill="#3f5959"/>
    <path id="Path_811" data-name="Path 811" d="M37.48,1.5V9.064a1.5,1.5,0,0,1-1.5,1.5H31.6a1.5,1.5,0,0,0,1.5-1.5V1.5A1.5,1.5,0,0,0,31.6,0H35.98a1.5,1.5,0,0,1,1.5,1.5Z" transform="translate(2.545 0)" fill="#384848"/>
    <g id="Group_91" data-name="Group 91" transform="translate(33.003 13.835)">
      <path id="Path_812" data-name="Path 812" d="M33.413,13.955H31.8a1.159,1.159,0,0,1,0-2.317h1.615a1.159,1.159,0,1,1,0,2.317Z" transform="translate(-30.64 -11.638)" fill="#eff5f6"/>
    </g>
    <g id="Group_92" data-name="Group 92" transform="translate(24.706 52.969)">
      <path id="Path_813" data-name="Path 813" d="M30.159,54.2H26.39a2.733,2.733,0,0,1-2.729-2.729V45.716a1.159,1.159,0,1,1,2.317,0v5.757a.413.413,0,0,0,.412.412h3.77a1.159,1.159,0,0,1,0,2.317Z" transform="translate(-23.66 -44.558)" fill="#eff5f6"/>
    </g>
    <g id="Group_93" data-name="Group 93" transform="translate(37.574 52.969)">
      <path id="Path_814" data-name="Path 814" d="M39.413,54.2h-3.77a1.159,1.159,0,0,1,0-2.317h3.77a.413.413,0,0,0,.412-.412V45.716a1.159,1.159,0,1,1,2.317,0v5.757A2.732,2.732,0,0,1,39.413,54.2Z" transform="translate(-34.485 -44.558)" fill="#eff5f6"/>
    </g>
    <g id="Group_96" data-name="Group 96" transform="translate(22.402 38.899)">
      <path id="Path_815" data-name="Path 815" d="M33.156,43.542c-2.775,0-4.949-1.666-4.949-3.792s2.174-3.792,4.949-3.792S38.1,37.624,38.1,39.75s-2.174,3.792-4.949,3.792Zm0-5.267c-1.506,0-2.632.779-2.632,1.475s1.126,1.475,2.632,1.475,2.632-.779,2.632-1.475S34.662,38.275,33.156,38.275Z" transform="translate(-20.498 -32.112)" fill="#eff5f6"/>
      <g id="Group_94" data-name="Group 94" transform="translate(6.876 13.143)">
        <path id="Path_816" data-name="Path 816" d="M37.729,49.237H28.665a1.159,1.159,0,0,1,0-2.317h9.064a1.159,1.159,0,1,1,0,2.317Z" transform="translate(-27.506 -43.185)" fill="#eff5f6"/>
        <path id="Path_817" data-name="Path 817" d="M37.729,46.1H28.665a1.159,1.159,0,0,1,0-2.317h9.064a1.159,1.159,0,0,1,0,2.317Z" transform="translate(-27.506 -43.778)" fill="#eff5f6"/>
      </g>
      <path id="Path_818" data-name="Path 818" d="M40.136,42.875a1.158,1.158,0,0,1-1.159-1.159V39.088a1.159,1.159,0,0,1,2.317,0v2.628A1.158,1.158,0,0,1,40.136,42.875Z" transform="translate(-18.465 -31.739)" fill="#eff5f6"/>
      <path id="Path_819" data-name="Path 819" d="M24.819,42.875a1.158,1.158,0,0,1-1.159-1.159V39.088a1.159,1.159,0,0,1,2.317,0v2.628A1.159,1.159,0,0,1,24.819,42.875Z" transform="translate(-21.356 -31.739)" fill="#eff5f6"/>
      <path id="Path_820" data-name="Path 820" d="M24.819,36.651a1.159,1.159,0,0,1-.422-2.238,26.444,26.444,0,0,1,9.526-1.691,26.442,26.442,0,0,1,9.526,1.691,1.159,1.159,0,1,1-.844,2.158,24.109,24.109,0,0,0-8.682-1.532,24.11,24.11,0,0,0-8.682,1.532A1.154,1.154,0,0,1,24.819,36.651Z" transform="translate(-21.356 -32.722)" fill="#eff5f6"/>
      <g id="Group_95" data-name="Group 95" transform="translate(0 11.456)">
        <path id="Path_821" data-name="Path 821" d="M42.077,44.677h-.022a1.159,1.159,0,0,1,.005-2.317h.022a1.159,1.159,0,0,1-.005,2.317Z" transform="translate(-18.102 -42.359)" fill="#eff5f6"/>
        <path id="Path_822" data-name="Path 822" d="M22.9,44.677h-.022a1.159,1.159,0,0,1,.005-2.317H22.9a1.159,1.159,0,0,1-.005,2.317Z" transform="translate(-21.722 -42.359)" fill="#eff5f6"/>
      </g>
    </g>
  </g>
</svg>
